<svg width="172" height="78" viewBox="0 0 172 78" fill="none" xmlns="http://www.w3.org/2000/svg">
<path d="M124.446 18.2761C123.113 19.0486 122.053 20.1392 121.281 21.5478C120.508 22.9565 120.129 24.5318 120.099 26.3039C120.099 28.0761 120.493 29.6514 121.265 31.0449C122.038 32.4384 123.083 33.5138 124.431 34.3015C125.764 35.0891 127.264 35.4829 128.915 35.4829C130.914 35.4829 132.641 34.9982 134.08 34.0591C135.534 33.1049 136.579 31.7871 137.23 30.0604H135.11C134.595 31.2569 133.807 32.196 132.747 32.8777C131.686 33.5593 130.414 33.8925 128.915 33.8925C127.582 33.8925 126.4 33.5896 125.34 32.9685C124.28 32.3475 123.462 31.469 122.856 30.3178C122.25 29.1667 121.947 27.8186 121.947 26.2888C121.947 24.759 122.25 23.4261 122.856 22.2597C123.447 21.1086 124.28 20.2149 125.34 19.5939C126.4 18.9729 127.597 18.67 128.915 18.67C130.414 18.67 131.686 19.0183 132.747 19.6999C133.807 20.3815 134.595 21.3358 135.11 22.5627H137.23C136.579 20.8359 135.534 19.4879 134.095 18.5336C132.671 17.5794 130.944 17.0947 128.93 17.0947C127.279 17.0947 125.794 17.4885 124.446 18.2761Z" fill="white"/>
<path d="M25.0681 18.8063V17.3067H15.3287V35.3314H17.1311V27.031H23.8412V25.5314H17.1311V18.8063H25.0681Z" fill="white"/>
<path d="M36.8068 35.3314V17.3067H35.0044V35.3314H36.8068Z" fill="white"/>
<path d="M61.4507 35.3314H59.6482L49.6665 20.1695V35.3314H47.864V17.3067H49.6665L59.6482 32.4384V17.3067H61.4507V35.3314Z" fill="white"/>
<path fill-rule="evenodd" clip-rule="evenodd" d="M74.7647 31.0449H82.9591L84.5344 35.3315H86.4429L79.8995 17.534H77.8547L71.2809 35.3315H73.1894L74.7647 31.0449ZM78.8695 19.806L82.4138 29.5605H75.31L78.8695 19.806Z" fill="white"/>
<path d="M109.89 35.3314H108.088L98.1059 20.1695V35.3314H96.2883V17.3067H98.1059L108.088 32.4384V17.3067H109.89V35.3314Z" fill="white"/>
<path d="M149.605 18.776V25.5012H156.436V27.0007H149.605V33.8319H157.209V35.3314H147.787V17.2765H157.194V18.776H149.605Z" fill="white"/>
<path d="M35.1407 60.8691V42.602H31.0207L25.2044 56.1887L19.388 42.602H15.2226V60.8691H18.8882V48.994L23.8109 60.8691H26.5827L31.4752 48.994V60.8691H35.1407Z" fill="white"/>
<path fill-rule="evenodd" clip-rule="evenodd" d="M49.9542 57.3852H42.6838L41.4872 60.869H37.6399L44.2136 42.5717H48.485L55.0284 60.869H51.1508L49.9542 57.3852ZM46.3039 46.8128L48.9493 54.4467H43.6532L46.3039 46.8128Z" fill="white"/>
<path d="M68.4788 46.3432C69.2058 46.7522 69.7814 47.3278 70.2055 48.1003V48.0851H74.4012C73.8256 46.2675 72.7805 44.8588 71.2658 43.8592C69.7511 42.8595 67.9638 42.3596 65.9038 42.3596C64.1468 42.3596 62.5715 42.7686 61.1477 43.5562C59.7239 44.3439 58.6182 45.4496 57.8003 46.8734C56.9975 48.2972 56.5885 49.9027 56.5885 51.7052C56.5885 53.5077 56.9824 55.1132 57.8003 56.5219C58.6031 57.9457 59.7239 59.0514 61.1477 59.839C62.5715 60.6418 64.1619 61.0356 65.919 61.0356C67.4942 61.0356 68.918 60.7024 70.1752 60.0511C71.4475 59.3998 72.4775 58.5213 73.2803 57.4458C74.0831 56.3704 74.6132 55.189 74.8556 53.9166V50.7207H64.9647V53.4925H71.2506C70.9629 54.8254 70.3873 55.8554 69.4936 56.5976C68.6151 57.3398 67.4639 57.7033 66.0704 57.7033C64.9344 57.7033 63.9347 57.461 63.0865 56.9763C62.2383 56.4916 61.5718 55.7948 61.0871 54.886C60.6024 53.9772 60.3601 52.9169 60.3601 51.6901C60.3601 50.5086 60.6024 49.4635 61.072 48.5547C61.5567 47.6459 62.208 46.9491 63.0411 46.4644C63.8741 45.9797 64.8435 45.7374 65.919 45.7374C66.8884 45.7374 67.7517 45.9494 68.4788 46.3432Z" fill="white"/>
<path d="M93.1983 60.869H89.5328L81.2324 48.3274V60.869H77.5668V42.5717H81.2324L89.5328 55.1284V42.5717H93.1983V60.869Z" fill="white"/>
<path fill-rule="evenodd" clip-rule="evenodd" d="M100.741 57.3852H108.012L109.209 60.869H113.086L106.543 42.5717H102.271L95.6976 60.869H99.5449L100.741 57.3852ZM104.392 46.8279L107.027 54.4619H101.741L104.392 46.8279Z" fill="white"/>
<path d="M127.991 42.602V45.5557H123.128V60.8691H119.463V45.5557H114.601V42.602H127.991Z" fill="white"/>
<path d="M134.322 50.1299V45.5556H141.259V42.5717H130.656V60.869H141.259V57.8851H134.322V53.0381H140.472V50.1299H134.322Z" fill="white"/>
<path d="M147.439 60.3995C146.424 59.9602 145.606 59.3392 145.016 58.5213C144.425 57.7033 144.122 56.734 144.107 55.6131H148.03C148.075 56.3704 148.348 56.9612 148.833 57.3853C149.317 57.8245 149.969 58.0366 150.802 58.0366C151.65 58.0366 152.331 57.8245 152.816 57.4156C153.301 57.0066 153.543 56.4765 153.543 55.81C153.543 55.2647 153.377 54.8255 153.043 54.4771C152.71 54.1287 152.301 53.8561 151.801 53.6591C151.301 53.4622 150.62 53.235 149.741 52.9927C148.56 52.6443 147.591 52.2959 146.848 51.9627C146.106 51.6295 145.47 51.1145 144.94 50.4177C144.41 49.7361 144.137 48.8122 144.137 47.661C144.137 46.5856 144.41 45.6313 144.955 44.8286C145.5 44.0258 146.258 43.4048 147.227 42.9807C148.196 42.5565 149.317 42.3445 150.574 42.3445C152.453 42.3445 153.982 42.7989 155.164 43.7228C156.345 44.6317 156.997 45.9191 157.118 47.555H153.089C153.059 46.934 152.786 46.4038 152.286 45.9949C151.786 45.5859 151.135 45.3739 150.317 45.3739C149.605 45.3739 149.029 45.5556 148.605 45.9191C148.181 46.2827 147.969 46.8128 147.969 47.5095C147.969 47.9942 148.136 48.4032 148.454 48.7213C148.772 49.0394 149.181 49.312 149.65 49.5089C150.135 49.7058 150.802 49.933 151.68 50.2057C152.862 50.5541 153.831 50.9024 154.588 51.2508C155.346 51.5992 155.982 52.1293 156.527 52.8261C157.072 53.5228 157.345 54.4468 157.345 55.5676C157.345 56.5522 157.088 57.4459 156.588 58.2941C156.088 59.1271 155.346 59.7936 154.361 60.2934C153.392 60.7933 152.225 61.0356 150.877 61.0356C149.605 61.0508 148.454 60.8387 147.439 60.3995Z" fill="white"/>
<path fill-rule="evenodd" clip-rule="evenodd" d="M0 78V0.160583H172V78H0ZM168.234 74.1982V3.94728H3.7867V74.1982H168.234Z" fill="white"/>
</svg>
