<svg width="17" height="15" viewBox="0 0 17 15" fill="none" xmlns="http://www.w3.org/2000/svg">
<path fill-rule="evenodd" clip-rule="evenodd" d="M1.91535 6.69736C6.2103 4.82611 9.07428 3.59247 10.5073 2.99644C14.5988 1.29464 15.449 0.999024 16.0031 0.989263C16.125 0.987116 16.3975 1.01732 16.574 1.16055C16.723 1.2815 16.7641 1.44487 16.7837 1.55954C16.8033 1.67421 16.8277 1.93542 16.8083 2.13953C16.5866 4.46916 15.6272 10.1226 15.1391 12.7318C14.9326 13.8358 14.526 14.206 14.1323 14.2423C13.2767 14.321 12.627 13.6768 11.7984 13.1336C10.5017 12.2836 9.76912 11.7545 8.51046 10.9251C7.05585 9.96651 7.99881 9.43966 8.82779 8.57865C9.04473 8.35332 12.8144 4.92452 12.8874 4.61348C12.8965 4.57458 12.905 4.42957 12.8188 4.353C12.7327 4.27643 12.6055 4.30262 12.5138 4.32344C12.3837 4.35296 10.3122 5.72213 6.29932 8.43096C5.71134 8.83472 5.17876 9.03144 4.70159 9.02113C4.17555 9.00976 3.16365 8.7237 2.41141 8.47917C1.48876 8.17925 0.755451 8.02069 0.819306 7.51133C0.852565 7.24603 1.21791 6.9747 1.91535 6.69736Z" fill="white"/>
</svg>
