<svg width="16" height="12" viewBox="0 0 16 12" fill="none" xmlns="http://www.w3.org/2000/svg">
<path d="M15.8406 2.63945C15.8406 2.63945 15.6844 1.53633 15.2031 1.05195C14.5937 0.414452 13.9125 0.411326 13.6 0.373826C11.3625 0.211327 8.00313 0.211327 8.00313 0.211327H7.99687C7.99687 0.211327 4.6375 0.211327 2.4 0.373826C2.0875 0.411326 1.40625 0.414452 0.796875 1.05195C0.315625 1.53633 0.1625 2.63945 0.1625 2.63945C0.1625 2.63945 0 3.93633 0 5.23008V6.44258C0 7.73633 0.159375 9.0332 0.159375 9.0332C0.159375 9.0332 0.315625 10.1363 0.79375 10.6207C1.40312 11.2582 2.20312 11.2363 2.55938 11.3051C3.84062 11.427 8 11.4645 8 11.4645C8 11.4645 11.3625 11.4582 13.6 11.2988C13.9125 11.2613 14.5937 11.2582 15.2031 10.6207C15.6844 10.1363 15.8406 9.0332 15.8406 9.0332C15.8406 9.0332 16 7.73945 16 6.44258V5.23008C16 3.93633 15.8406 2.63945 15.8406 2.63945ZM6.34688 7.91445V3.41758L10.6687 5.67383L6.34688 7.91445Z" fill="white"/>
</svg>
